<svg width="320" height="64" xmlns="http://www.w3.org/2000/svg">
  <!-- 8-bit Irish Setter sprite sheet - 5 frames for walking animation -->
  <!-- Frame 1: Standing -->
  <g id="frame1" transform="translate(0, 0)">
    <!-- Body - reddish brown Irish Setter color -->
    <rect x="16" y="24" width="32" height="16" fill="#8B3A00"/>
    <rect x="12" y="28" width="4" height="8" fill="#8B3A00"/>
    <rect x="48" y="28" width="4" height="8" fill="#8B3A00"/>

    <!-- Head -->
    <rect x="44" y="16" width="16" height="16" fill="#A0522D"/>
    <rect x="56" y="20" width="4" height="8" fill="#A0522D"/>

    <!-- Ears (long Irish Setter ears) -->
    <rect x="44" y="12" width="8" height="4" fill="#6B2A00"/>
    <rect x="48" y="16" width="4" height="8" fill="#6B2A00"/>

    <!-- Eye -->
    <rect x="52" y="20" width="4" height="4" fill="#000"/>
    <rect x="54" y="21" width="2" height="2" fill="#FFF"/>

    <!-- Nose -->
    <rect x="56" y="24" width="4" height="4" fill="#000"/>

    <!-- Legs -->
    <rect x="20" y="40" width="4" height="12" fill="#A0522D"/>
    <rect x="28" y="40" width="4" height="12" fill="#A0522D"/>
    <rect x="36" y="40" width="4" height="12" fill="#A0522D"/>
    <rect x="44" y="40" width="4" height="12" fill="#A0522D"/>

    <!-- Paws -->
    <rect x="20" y="52" width="4" height="4" fill="#6B2A00"/>
    <rect x="28" y="52" width="4" height="4" fill="#6B2A00"/>
    <rect x="36" y="52" width="4" height="4" fill="#6B2A00"/>
    <rect x="44" y="52" width="4" height="4" fill="#6B2A00"/>

    <!-- Tail (long and fluffy) -->
    <rect x="12" y="24" width="8" height="4" fill="#8B3A00"/>
    <rect x="8" y="20" width="8" height="4" fill="#8B3A00"/>
    <rect x="4" y="16" width="8" height="4" fill="#6B2A00"/>
  </g>

  <!-- Frame 2: Walk step 1 -->
  <g id="frame2" transform="translate(64, 0)">
    <rect x="16" y="24" width="32" height="16" fill="#8B3A00"/>
    <rect x="12" y="28" width="4" height="8" fill="#8B3A00"/>
    <rect x="48" y="28" width="4" height="8" fill="#8B3A00"/>
    <rect x="44" y="16" width="16" height="16" fill="#A0522D"/>
    <rect x="56" y="20" width="4" height="8" fill="#A0522D"/>
    <rect x="44" y="12" width="8" height="4" fill="#6B2A00"/>
    <rect x="48" y="16" width="4" height="8" fill="#6B2A00"/>
    <rect x="52" y="20" width="4" height="4" fill="#000"/>
    <rect x="54" y="21" width="2" height="2" fill="#FFF"/>
    <rect x="56" y="24" width="4" height="4" fill="#000"/>

    <!-- Legs - left front raised -->
    <rect x="20" y="36" width="4" height="16" fill="#A0522D"/>
    <rect x="28" y="40" width="4" height="12" fill="#A0522D"/>
    <rect x="36" y="40" width="4" height="12" fill="#A0522D"/>
    <rect x="44" y="36" width="4" height="16" fill="#A0522D"/>

    <rect x="20" y="48" width="4" height="4" fill="#6B2A00"/>
    <rect x="28" y="52" width="4" height="4" fill="#6B2A00"/>
    <rect x="36" y="52" width="4" height="4" fill="#6B2A00"/>
    <rect x="44" y="48" width="4" height="4" fill="#6B2A00"/>

    <!-- Tail wagging -->
    <rect x="12" y="20" width="8" height="4" fill="#8B3A00"/>
    <rect x="8" y="16" width="8" height="4" fill="#8B3A00"/>
    <rect x="4" y="12" width="8" height="4" fill="#6B2A00"/>
  </g>

  <!-- Frame 3: Walk step 2 -->
  <g id="frame3" transform="translate(128, 0)">
    <rect x="16" y="24" width="32" height="16" fill="#8B3A00"/>
    <rect x="12" y="28" width="4" height="8" fill="#8B3A00"/>
    <rect x="48" y="28" width="4" height="8" fill="#8B3A00"/>
    <rect x="44" y="16" width="16" height="16" fill="#A0522D"/>
    <rect x="56" y="20" width="4" height="8" fill="#A0522D"/>
    <rect x="44" y="12" width="8" height="4" fill="#6B2A00"/>
    <rect x="48" y="16" width="4" height="8" fill="#6B2A00"/>
    <rect x="52" y="20" width="4" height="4" fill="#000"/>
    <rect x="54" y="21" width="2" height="2" fill="#FFF"/>
    <rect x="56" y="24" width="4" height="4" fill="#000"/>

    <!-- All legs down -->
    <rect x="20" y="40" width="4" height="12" fill="#A0522D"/>
    <rect x="28" y="40" width="4" height="12" fill="#A0522D"/>
    <rect x="36" y="40" width="4" height="12" fill="#A0522D"/>
    <rect x="44" y="40" width="4" height="12" fill="#A0522D"/>

    <rect x="20" y="52" width="4" height="4" fill="#6B2A00"/>
    <rect x="28" y="52" width="4" height="4" fill="#6B2A00"/>
    <rect x="36" y="52" width="4" height="4" fill="#6B2A00"/>
    <rect x="44" y="52" width="4" height="4" fill="#6B2A00"/>

    <!-- Tail -->
    <rect x="12" y="24" width="8" height="4" fill="#8B3A00"/>
    <rect x="8" y="20" width="8" height="4" fill="#8B3A00"/>
    <rect x="4" y="16" width="8" height="4" fill="#6B2A00"/>
  </g>

  <!-- Frame 4: Walk step 3 -->
  <g id="frame4" transform="translate(192, 0)">
    <rect x="16" y="24" width="32" height="16" fill="#8B3A00"/>
    <rect x="12" y="28" width="4" height="8" fill="#8B3A00"/>
    <rect x="48" y="28" width="4" height="8" fill="#8B3A00"/>
    <rect x="44" y="16" width="16" height="16" fill="#A0522D"/>
    <rect x="56" y="20" width="4" height="8" fill="#A0522D"/>
    <rect x="44" y="12" width="8" height="4" fill="#6B2A00"/>
    <rect x="48" y="16" width="4" height="8" fill="#6B2A00"/>
    <rect x="52" y="20" width="4" height="4" fill="#000"/>
    <rect x="54" y="21" width="2" height="2" fill="#FFF"/>
    <rect x="56" y="24" width="4" height="4" fill="#000"/>

    <!-- Legs - right front raised -->
    <rect x="20" y="40" width="4" height="12" fill="#A0522D"/>
    <rect x="28" y="36" width="4" height="16" fill="#A0522D"/>
    <rect x="36" y="36" width="4" height="16" fill="#A0522D"/>
    <rect x="44" y="40" width="4" height="12" fill="#A0522D"/>

    <rect x="20" y="52" width="4" height="4" fill="#6B2A00"/>
    <rect x="28" y="48" width="4" height="4" fill="#6B2A00"/>
    <rect x="36" y="48" width="4" height="4" fill="#6B2A00"/>
    <rect x="44" y="52" width="4" height="4" fill="#6B2A00"/>

    <!-- Tail wagging other way -->
    <rect x="12" y="28" width="8" height="4" fill="#8B3A00"/>
    <rect x="8" y="24" width="8" height="4" fill="#8B3A00"/>
    <rect x="4" y="20" width="8" height="4" fill="#6B2A00"/>
  </g>

  <!-- Frame 5: Happy (for petting) -->
  <g id="frame5" transform="translate(256, 0)">
    <rect x="16" y="24" width="32" height="16" fill="#8B3A00"/>
    <rect x="12" y="28" width="4" height="8" fill="#8B3A00"/>
    <rect x="48" y="28" width="4" height="8" fill="#8B3A00"/>
    <rect x="44" y="16" width="16" height="16" fill="#A0522D"/>
    <rect x="56" y="20" width="4" height="8" fill="#A0522D"/>

    <!-- Ears up (happy) -->
    <rect x="44" y="8" width="8" height="8" fill="#6B2A00"/>
    <rect x="52" y="8" width="4" height="8" fill="#6B2A00"/>

    <!-- Eye (happy) -->
    <rect x="52" y="20" width="4" height="2" fill="#000"/>
    <rect x="54" y="20" width="2" height="2" fill="#FFF"/>

    <!-- Mouth (happy) -->
    <rect x="56" y="26" width="4" height="2" fill="#000"/>

    <!-- Nose -->
    <rect x="56" y="24" width="4" height="2" fill="#000"/>

    <!-- Legs (sitting slightly) -->
    <rect x="20" y="36" width="4" height="16" fill="#A0522D"/>
    <rect x="28" y="36" width="4" height="16" fill="#A0522D"/>
    <rect x="36" y="40" width="4" height="12" fill="#A0522D"/>
    <rect x="44" y="40" width="4" height="12" fill="#A0522D"/>

    <rect x="20" y="48" width="4" height="4" fill="#6B2A00"/>
    <rect x="28" y="48" width="4" height="4" fill="#6B2A00"/>
    <rect x="36" y="52" width="4" height="4" fill="#6B2A00"/>
    <rect x="44" y="52" width="4" height="4" fill="#6B2A00"/>

    <!-- Tail up (happy) -->
    <rect x="12" y="16" width="8" height="4" fill="#8B3A00"/>
    <rect x="8" y="12" width="8" height="4" fill="#8B3A00"/>
    <rect x="4" y="8" width="8" height="4" fill="#6B2A00"/>
  </g>
</svg>
